<svg width="30" height="29" viewBox="0 0 30 29" fill="none" xmlns="http://www.w3.org/2000/svg">
<g clip-path="url(#clip0_6122_15)">
<path d="M6.34881 20.2969H19.591C20.341 20.2969 20.9816 20.0312 21.5129 19.5C22.0441 18.9688 22.3097 18.3281 22.3097 17.5781V12.0234C22.3097 12.0234 22.3097 12.0195 22.3097 12.0117C22.3097 12.0039 22.3097 12 22.3097 12C22.3097 11.9844 22.3097 11.9766 22.3097 11.9766C22.3097 11.9766 22.3097 11.9688 22.3097 11.9531C22.3097 11.9531 22.3097 11.9492 22.3097 11.9414C22.3097 11.9336 22.3097 11.9297 22.3097 11.9297C22.3097 11.9297 22.3058 11.9258 22.298 11.918C22.2902 11.9102 22.2863 11.8984 22.2863 11.8828C22.2863 11.8828 22.2863 11.8789 22.2863 11.8711C22.2863 11.8633 22.2863 11.8594 22.2863 11.8594C22.2863 11.8594 22.2863 11.8555 22.2863 11.8477C22.2863 11.8398 22.2863 11.8359 22.2863 11.8359C22.2863 11.8203 22.2824 11.8125 22.2746 11.8125C22.2668 11.8125 22.2629 11.8047 22.2629 11.7891C22.2629 11.7891 22.2629 11.7852 22.2629 11.7773C22.2629 11.7695 22.2629 11.7656 22.2629 11.7656C22.2629 11.7656 22.259 11.7617 22.2511 11.7539C22.2433 11.7461 22.2394 11.7422 22.2394 11.7422C22.2394 11.7266 22.2394 11.7188 22.2394 11.7188C22.2238 11.7031 22.216 11.6953 22.216 11.6953C22.216 11.6953 22.216 11.6875 22.216 11.6719C22.216 11.6719 22.2082 11.6641 22.1926 11.6484C22.1926 11.6484 22.1926 11.6445 22.1926 11.6367C22.1926 11.6289 22.1926 11.625 22.1926 11.625C22.1769 11.625 22.1691 11.6211 22.1691 11.6133C22.1691 11.6055 22.1691 11.6016 22.1691 11.6016C22.1691 11.6016 22.1652 11.5977 22.1574 11.5898C22.1496 11.582 22.1457 11.5781 22.1457 11.5781C22.1457 11.5781 22.1418 11.5742 22.134 11.5664C22.1261 11.5586 22.1222 11.5547 22.1222 11.5547C22.1222 11.5547 22.1183 11.5508 22.1105 11.543C22.1027 11.5352 22.0988 11.5312 22.0988 11.5312C22.0988 11.5312 22.0949 11.5273 22.0871 11.5195C22.0793 11.5117 22.0754 11.5078 22.0754 11.5078C22.0754 11.5078 22.0715 11.5039 22.0636 11.4961C22.0558 11.4883 22.0519 11.4844 22.0519 11.4844C22.0519 11.4844 22.048 11.4805 22.0402 11.4727C22.0324 11.4648 22.0285 11.4609 22.0285 11.4609C22.0129 11.4609 22.0051 11.4609 22.0051 11.4609C21.9894 11.4609 21.9816 11.457 21.9816 11.4492C21.9816 11.4414 21.9738 11.4375 21.9582 11.4375C21.9582 11.4375 21.9582 11.4336 21.9582 11.4258C21.9582 11.418 21.9504 11.4141 21.9347 11.4141C21.9347 11.4141 21.9308 11.4141 21.923 11.4141C21.9152 11.4141 21.9113 11.4141 21.9113 11.4141C21.9113 11.3984 21.9074 11.3906 21.8996 11.3906C21.8918 11.3906 21.8879 11.3906 21.8879 11.3906C21.8722 11.3906 21.8644 11.3906 21.8644 11.3906C21.8644 11.3906 21.8566 11.3906 21.841 11.3906C21.841 11.375 21.8371 11.3672 21.8293 11.3672C21.8215 11.3672 21.8176 11.3672 21.8176 11.3672C21.8176 11.3672 21.8136 11.3672 21.8058 11.3672C21.798 11.3672 21.7941 11.3672 21.7941 11.3672C21.7941 11.3672 21.7902 11.3672 21.7824 11.3672C21.7746 11.3672 21.7629 11.3672 21.7472 11.3672C21.7472 11.3672 21.7472 11.3633 21.7472 11.3555C21.7472 11.3477 21.7394 11.3438 21.7238 11.3438L4.96599 9.04688V6.70312C4.96599 6.6875 4.96599 6.67578 4.96599 6.66797C4.96599 6.66016 4.96599 6.64844 4.96599 6.63281C4.96599 6.63281 4.96599 6.625 4.96599 6.60938C4.96599 6.60938 4.96599 6.60547 4.96599 6.59766C4.96599 6.58984 4.96599 6.57812 4.96599 6.5625C4.95037 6.5625 4.94256 6.55859 4.94256 6.55078C4.94256 6.54297 4.94256 6.53906 4.94256 6.53906C4.94256 6.52344 4.94256 6.51562 4.94256 6.51562C4.94256 6.5 4.94256 6.48828 4.94256 6.48047C4.94256 6.47266 4.93474 6.46875 4.91912 6.46875C4.91912 6.46875 4.91912 6.46484 4.91912 6.45703C4.91912 6.44922 4.91912 6.44531 4.91912 6.44531C4.91912 6.42969 4.91912 6.42188 4.91912 6.42188C4.91912 6.42188 4.91131 6.41406 4.89568 6.39844C4.89568 6.39844 4.89568 6.39453 4.89568 6.38672C4.89568 6.37891 4.89568 6.375 4.89568 6.375C4.89568 6.375 4.89177 6.37109 4.88396 6.36328C4.87615 6.35547 4.87224 6.35156 4.87224 6.35156C4.87224 6.35156 4.87224 6.34766 4.87224 6.33984C4.87224 6.33203 4.86443 6.32812 4.84881 6.32812C4.84881 6.32812 4.84881 6.32422 4.84881 6.31641C4.84881 6.30859 4.84881 6.30469 4.84881 6.30469C4.84881 6.30469 4.8449 6.30078 4.83709 6.29297C4.82927 6.28516 4.82537 6.28125 4.82537 6.28125C4.82537 6.28125 4.82146 6.27734 4.81365 6.26953C4.80584 6.26172 4.80193 6.25781 4.80193 6.25781C4.80193 6.25781 4.79802 6.25391 4.79021 6.24609C4.7824 6.23828 4.77849 6.23438 4.77849 6.23438C4.77849 6.23438 4.77849 6.23047 4.77849 6.22266C4.77849 6.21484 4.77068 6.21094 4.75506 6.21094C4.75506 6.21094 4.75115 6.20703 4.74334 6.19922C4.73552 6.19141 4.73162 6.1875 4.73162 6.1875C4.73162 6.1875 4.72771 6.18359 4.7199 6.17578C4.71209 6.16797 4.70818 6.16406 4.70818 6.16406C4.70818 6.16406 4.70427 6.16406 4.69646 6.16406C4.68865 6.16406 4.68474 6.15625 4.68474 6.14062C4.66912 6.14062 4.6574 6.13672 4.64959 6.12891C4.64177 6.12109 4.63787 6.11719 4.63787 6.11719C4.62224 6.10156 4.60662 6.09375 4.59099 6.09375C4.57537 6.09375 4.56756 6.08594 4.56756 6.07031L0.934743 4.54688C0.762868 4.48438 0.590993 4.48828 0.419118 4.55859C0.247243 4.62891 0.122243 4.74219 0.0441176 4.89844C-0.0183824 5.07031 -0.0144761 5.24219 0.0558364 5.41406C0.126149 5.58594 0.247243 5.71094 0.419118 5.78906L3.63006 7.14844V21.7266C3.63006 22.4141 3.86052 23.0156 4.32146 23.5312C4.7824 24.0469 5.34099 24.3438 5.99724 24.4219C5.88787 24.625 5.79802 24.8438 5.72771 25.0781C5.6574 25.3125 5.62224 25.5547 5.62224 25.8047C5.62224 26.5547 5.88396 27.1914 6.4074 27.7148C6.93084 28.2383 7.56756 28.5 8.31756 28.5C9.05193 28.5 9.68084 28.2383 10.2043 27.7148C10.7277 27.1914 10.9894 26.5547 10.9894 25.8047C10.9894 25.5703 10.9582 25.3359 10.8957 25.1016C10.8332 24.8672 10.7472 24.6484 10.6379 24.4453H16.6144C16.5051 24.6484 16.4152 24.8672 16.3449 25.1016C16.2746 25.3359 16.2394 25.5703 16.2394 25.8047C16.2394 26.5547 16.5051 27.1914 17.0363 27.7148C17.5676 28.2383 18.2004 28.5 18.9347 28.5C19.6691 28.5 20.3019 28.2383 20.8332 27.7148C21.3644 27.1914 21.6301 26.5547 21.6301 25.8047C21.6301 25.0703 21.3644 24.4414 20.8332 23.918C20.3019 23.3945 19.6691 23.1328 18.9347 23.1328H6.34881C5.97381 23.1328 5.64959 22.9961 5.37615 22.7227C5.10271 22.4492 4.96599 22.1172 4.96599 21.7266V19.9219C5.16912 20.0469 5.38787 20.1406 5.62224 20.2031C5.85662 20.2656 6.0988 20.2969 6.34881 20.2969ZM9.67693 25.8047C9.67693 26.1797 9.54412 26.5 9.27849 26.7656C9.01287 27.0312 8.69256 27.1641 8.31756 27.1641C7.94256 27.1641 7.62224 27.0312 7.35662 26.7656C7.09099 26.5 6.95818 26.1797 6.95818 25.8047C6.95818 25.4297 7.09099 25.1094 7.35662 24.8438C7.62224 24.5781 7.94256 24.4453 8.31756 24.4453C8.69256 24.4453 9.01287 24.5781 9.27849 24.8438C9.54412 25.1094 9.67693 25.4297 9.67693 25.8047ZM20.2941 25.8047C20.2941 26.1797 20.1613 26.5 19.8957 26.7656C19.6301 27.0312 19.3097 27.1641 18.9347 27.1641C18.5597 27.1641 18.2394 27.0312 17.9738 26.7656C17.7082 26.5 17.5754 26.1797 17.5754 25.8047C17.5754 25.4297 17.7082 25.1094 17.9738 24.8438C18.2394 24.5781 18.5597 24.4453 18.9347 24.4453C19.3097 24.4453 19.6301 24.5781 19.8957 24.8438C20.1613 25.1094 20.2941 25.4297 20.2941 25.8047ZM19.591 18.9609H6.34881C5.97381 18.9609 5.64959 18.8281 5.37615 18.5625C5.10271 18.2969 4.96599 17.9688 4.96599 17.5781V10.3828L20.9738 12.5859V17.5781C20.9738 17.9688 20.8371 18.2969 20.5636 18.5625C20.2902 18.8281 19.966 18.9609 19.591 18.9609Z" fill="#1F1E17"/>
</g>
<rect x="14" y="0.5" width="16" height="16" rx="8" fill="#4BAF47"/>
<path d="M22.1777 12.165C21.6387 12.165 21.162 12.0477 20.7477 11.813C20.3333 11.5747 20.007 11.2483 19.7687 10.834C19.534 10.4197 19.4167 9.943 19.4167 9.404V6.676C19.4167 6.137 19.534 5.66033 19.7687 5.246C20.007 4.83167 20.3333 4.50717 20.7477 4.2725C21.162 4.03417 21.6387 3.915 22.1777 3.915C22.7167 3.915 23.1933 4.03417 23.6077 4.2725C24.022 4.50717 24.3465 4.83167 24.5812 5.246C24.8195 5.66033 24.9387 6.137 24.9387 6.676V9.404C24.9387 9.943 24.8195 10.4197 24.5812 10.834C24.3465 11.2483 24.022 11.5747 23.6077 11.813C23.1933 12.0477 22.7167 12.165 22.1777 12.165ZM22.1777 11.065C22.471 11.065 22.7368 10.9953 22.9752 10.856C23.2172 10.713 23.4097 10.5223 23.5527 10.284C23.6957 10.042 23.7672 9.7725 23.7672 9.4755V6.5935C23.7672 6.30017 23.6957 6.03433 23.5527 5.796C23.4097 5.554 23.2172 5.36333 22.9752 5.224C22.7368 5.081 22.471 5.0095 22.1777 5.0095C21.8843 5.0095 21.6167 5.081 21.3747 5.224C21.1363 5.36333 20.9457 5.554 20.8027 5.796C20.6597 6.03433 20.5882 6.30017 20.5882 6.5935V9.4755C20.5882 9.7725 20.6597 10.042 20.8027 10.284C20.9457 10.5223 21.1363 10.713 21.3747 10.856C21.6167 10.9953 21.8843 11.065 22.1777 11.065Z" fill="white"/>
<defs>
<clipPath id="clip0_6122_15">
<rect width="24" height="24" fill="white" transform="matrix(1 0 0 -1 0 28.5)"/>
</clipPath>
</defs>
</svg>
