<svg width="64" height="60" viewBox="0 0 64 60" fill="none" xmlns="http://www.w3.org/2000/svg">
<path d="M63.5625 32.315L58.3125 27.065C58.1042 26.8567 57.875 26.7525 57.625 26.7525C57.375 26.7525 57.1667 26.8567 57 27.065C56.7917 27.2317 56.6875 27.4504 56.6875 27.7213C56.6875 27.9921 56.7917 28.2108 57 28.3775L62 33.3775L60 35.3775L48.9375 24.315C49.1458 24.19 49.3333 24.0442 49.5 23.8775C49.6667 23.7108 49.8333 23.5442 50 23.3775C50.1667 23.2108 50.3333 23.0442 50.5 22.8775C50.6667 22.7108 50.8125 22.5233 50.9375 22.315L53.875 25.2525C54.0417 25.4608 54.2604 25.565 54.5312 25.565C54.8021 25.565 55.0208 25.4608 55.1875 25.2525C55.3542 25.0858 55.4375 24.8671 55.4375 24.5963C55.4375 24.3254 55.3542 24.1067 55.1875 23.94L52.0625 20.815C53.6042 18.19 54.2083 15.3254 53.875 12.2213C53.5417 9.11709 52.25 6.44 50 4.19C48.7083 2.94 47.2396 1.97125 45.5938 1.28375C43.9479 0.596252 42.2292 0.252502 40.4375 0.252502C38.6042 0.252502 36.8646 0.596252 35.2188 1.28375C33.5729 1.97125 32.1042 2.94 30.8125 4.19C29.4792 5.52334 28.5 7.02334 27.875 8.69C27.2083 10.3567 26.875 12.0546 26.875 13.7838C26.875 15.5129 27.2083 17.2108 27.875 18.8775C28.5 20.5442 29.4792 22.0442 30.8125 23.3775C32.1458 24.7108 33.6458 25.7108 35.3125 26.3775C36.9792 27.0442 38.6875 27.3775 40.4375 27.3775C41.6458 27.3775 42.8438 27.2108 44.0312 26.8775C45.2188 26.5442 46.3333 26.065 47.375 25.44L58.875 36.94C59.0417 37.1067 59.2188 37.2213 59.4062 37.2838C59.5938 37.3463 59.7917 37.3775 60 37.3775C60.2083 37.3775 60.4062 37.3463 60.5938 37.2838C60.7812 37.2213 60.9583 37.1067 61.125 36.94L63.5625 34.5025C63.8542 34.2108 64 33.8463 64 33.4088C64 32.9713 63.8542 32.6067 63.5625 32.315ZM40.4375 25.5025C38.9375 25.5025 37.4688 25.2108 36.0312 24.6275C34.5938 24.0442 33.2917 23.19 32.125 22.065C29.875 19.7733 28.75 17.0129 28.75 13.7838C28.75 10.5546 29.875 7.815 32.125 5.565C33.25 4.44 34.5208 3.58584 35.9375 3.0025C37.3542 2.41917 38.8542 2.1275 40.4375 2.1275C41.9792 2.1275 43.4583 2.41917 44.875 3.0025C46.2917 3.58584 47.5625 4.44 48.6875 5.565C50.9375 7.815 52.0625 10.5546 52.0625 13.7838C52.0625 17.0129 50.9375 19.7733 48.6875 22.065C47.5208 23.19 46.2188 24.0442 44.7812 24.6275C43.3438 25.2108 41.8958 25.5025 40.4375 25.5025ZM47.4375 6.815C46.4792 5.85667 45.3958 5.1275 44.1875 4.6275C42.9792 4.1275 41.7292 3.8775 40.4375 3.8775C39.1042 3.8775 37.8333 4.1275 36.625 4.6275C35.4167 5.1275 34.3333 5.85667 33.375 6.815C32.4583 7.73167 31.75 8.79417 31.25 10.0025C30.75 11.2108 30.5 12.4817 30.5 13.815C30.5 15.1483 30.75 16.4088 31.25 17.5963C31.75 18.7838 32.4583 19.8567 33.375 20.815C34.375 21.7733 35.4792 22.4921 36.6875 22.9713C37.8958 23.4504 39.1458 23.69 40.4375 23.69C41.6875 23.69 42.9271 23.4504 44.1562 22.9713C45.3854 22.4921 46.4792 21.7733 47.4375 20.815C48.3542 19.8567 49.0625 18.7838 49.5625 17.5963C50.0625 16.4088 50.3125 15.1483 50.3125 13.815C50.3125 12.4817 50.0625 11.2108 49.5625 10.0025C49.0625 8.79417 48.3542 7.73167 47.4375 6.815ZM46.0625 19.5025C45.3125 20.2942 44.4375 20.8775 43.4375 21.2525C42.4375 21.6275 41.4375 21.815 40.4375 21.815C39.3958 21.815 38.375 21.6171 37.375 21.2213C36.375 20.8254 35.5 20.2525 34.75 19.5025C33.9583 18.7108 33.3646 17.8358 32.9688 16.8775C32.5729 15.9192 32.375 14.8983 32.375 13.815C32.375 12.7317 32.5729 11.7004 32.9688 10.7213C33.3646 9.74209 33.9583 8.8775 34.75 8.1275C35.5 7.3775 36.3646 6.79417 37.3438 6.3775C38.3229 5.96084 39.3542 5.7525 40.4375 5.7525C41.4792 5.7525 42.4896 5.96084 43.4688 6.3775C44.4479 6.79417 45.3125 7.3775 46.0625 8.1275C46.8542 8.8775 47.4479 9.74209 47.8438 10.7213C48.2396 11.7004 48.4375 12.7317 48.4375 13.815C48.4375 14.8983 48.2396 15.9192 47.8438 16.8775C47.4479 17.8358 46.8542 18.7108 46.0625 19.5025ZM51.375 40.7525C51.2083 40.9608 51.1458 41.19 51.1875 41.44C51.2292 41.69 51.3542 41.8983 51.5625 42.065C51.7708 42.19 52 42.2421 52.25 42.2213C52.5 42.2004 52.7083 42.0858 52.875 41.8775C52.9167 41.8358 52.9479 41.7942 52.9688 41.7525C52.9896 41.7108 53.0208 41.6692 53.0625 41.6275C54.0208 40.2525 54.3646 38.8775 54.0938 37.5025C53.8229 36.1275 53.25 35.0025 52.375 34.1275C51.5 33.2108 50.375 32.6171 49 32.3463C47.625 32.0754 46.2292 32.44 44.8125 33.44C44.6042 33.6067 44.3854 33.7838 44.1562 33.9713C43.9271 34.1588 43.7083 34.3567 43.5 34.565C42.2083 35.815 41.3333 37.315 40.875 39.065C40.4167 40.815 40.3958 42.565 40.8125 44.315L38.3125 46.815L35.875 44.315C36.2917 42.565 36.2708 40.815 35.8125 39.065C35.3542 37.315 34.4792 35.815 33.1875 34.565C32.9792 34.3567 32.7604 34.1588 32.5312 33.9713C32.3021 33.7838 32.0833 33.6067 31.875 33.44C31.4167 33.1067 30.9688 32.8567 30.5312 32.69C30.0938 32.5233 29.6458 32.4192 29.1875 32.3775C28.1875 31.1275 27.0417 30.0546 25.75 29.1588C24.4583 28.2629 23.0625 27.5858 21.5625 27.1275V23.6275C21.5625 23.3775 21.4688 23.1588 21.2812 22.9713C21.0938 22.7838 20.875 22.69 20.625 22.69C20.375 22.69 20.1562 22.7838 19.9688 22.9713C19.7812 23.1588 19.6875 23.3775 19.6875 23.6275V27.315C19.6875 27.69 19.7917 28.0129 20 28.2838C20.2083 28.5546 20.4792 28.7317 20.8125 28.815C21.9375 29.19 23.0208 29.69 24.0625 30.315C25.1042 30.94 26.0417 31.69 26.875 32.565C26.375 32.7317 25.9062 32.94 25.4688 33.19C25.0312 33.44 24.6458 33.7525 24.3125 34.1275C24.1458 34.2525 24 34.3983 23.875 34.565C23.75 34.7317 23.625 34.9192 23.5 35.1275H7.0625C6.77083 35.1275 6.51042 35.19 6.28125 35.315C6.05208 35.44 5.85417 35.6275 5.6875 35.8775C5.0625 36.8775 4.57292 37.9608 4.21875 39.1275C3.86458 40.2942 3.6875 41.4817 3.6875 42.69C3.6875 44.44 4.02083 46.1067 4.6875 47.69C5.35417 49.2317 6.27083 50.5754 7.4375 51.7213C8.60417 52.8671 9.95833 53.7733 11.5 54.44C13.0417 55.1067 14.6875 55.44 16.4375 55.44C19.4792 55.44 22.1562 54.4921 24.4688 52.5963C26.7812 50.7004 28.25 48.315 28.875 45.44C29.1667 45.565 29.4583 45.6588 29.75 45.7213C30.0417 45.7838 30.3333 45.8358 30.625 45.8775C30.3333 47.2108 29.8542 48.4921 29.1875 49.7213C28.5208 50.9504 27.6667 52.065 26.625 53.065C25.25 54.44 23.6562 55.4921 21.8438 56.2213C20.0312 56.9504 18.1458 57.2942 16.1875 57.2525C14.3125 57.2525 12.5 56.8775 10.75 56.1275C9 55.3775 7.45833 54.315 6.125 52.94C4.79167 51.6067 3.75 50.065 3 48.315C2.25 46.565 1.875 44.7525 1.875 42.8775C1.875 41.2525 2.11458 39.7004 2.59375 38.2213C3.07292 36.7421 3.77083 35.3567 4.6875 34.065C5.60417 32.815 6.69792 31.7421 7.96875 30.8463C9.23958 29.9504 10.6042 29.2733 12.0625 28.815C12.3958 28.7317 12.6667 28.5546 12.875 28.2838C13.0833 28.0129 13.1875 27.69 13.1875 27.315V16.69H19.6875V19.19C19.6875 19.44 19.7812 19.6588 19.9688 19.8463C20.1562 20.0338 20.375 20.1275 20.625 20.1275C20.875 20.1275 21.0938 20.0338 21.2812 19.8463C21.4688 19.6588 21.5625 19.44 21.5625 19.19V16.69H22.375C23 16.69 23.5208 16.4817 23.9375 16.065C24.3542 15.6483 24.5625 15.1275 24.5625 14.5025V11.94C24.5625 11.3567 24.3542 10.8463 23.9375 10.4088C23.5208 9.97125 23 9.7525 22.375 9.7525H10.4375C9.85417 9.7525 9.34375 9.97125 8.90625 10.4088C8.46875 10.8463 8.25 11.3567 8.25 11.94V14.5025C8.25 15.1275 8.46875 15.6483 8.90625 16.065C9.34375 16.4817 9.85417 16.69 10.4375 16.69H11.3125V27.1275C9.6875 27.6275 8.1875 28.3879 6.8125 29.4088C5.4375 30.4296 4.22917 31.6067 3.1875 32.94C2.14583 34.3983 1.35417 35.9713 0.8125 37.6588C0.270833 39.3463 0 41.0858 0 42.8775C0.0416667 45.0025 0.46875 47.0546 1.28125 49.0338C2.09375 51.0129 3.27083 52.7733 4.8125 54.315C6.3125 55.815 8.04167 56.9817 10 57.815C11.9583 58.6483 14.0208 59.0858 16.1875 59.1275C16.2292 59.1275 16.2708 59.1275 16.3125 59.1275C16.3542 59.1275 16.3958 59.1275 16.4375 59.1275C17.6875 59.1275 18.9062 58.9921 20.0938 58.7213C21.2812 58.4504 22.4167 58.065 23.5 57.565H52.125C52.375 57.565 52.5938 57.4713 52.7812 57.2838C52.9688 57.0963 53.0625 56.8775 53.0625 56.6275C53.0625 56.3775 52.9688 56.1588 52.7812 55.9713C52.5938 55.7838 52.375 55.69 52.125 55.69H39.25V48.5025L42.125 45.6275C42.5417 45.7525 42.9583 45.8358 43.375 45.8775C43.7917 45.9192 44.2083 45.94 44.625 45.94C45.4167 45.94 46.1875 45.8567 46.9375 45.69C47.6875 45.5233 48.4167 45.2733 49.125 44.94C49.375 44.815 49.5417 44.6275 49.625 44.3775C49.7083 44.1275 49.6875 43.8983 49.5625 43.69C49.4792 43.44 49.3125 43.2733 49.0625 43.19C48.8125 43.1067 48.5625 43.1275 48.3125 43.2525C47.6042 43.5858 46.8646 43.8254 46.0938 43.9713C45.3229 44.1171 44.5417 44.1483 43.75 44.065L48.25 39.565C48.4167 39.3983 48.5 39.1796 48.5 38.9088C48.5 38.6379 48.4167 38.4192 48.25 38.2525C48.0417 38.0442 47.8125 37.94 47.5625 37.94C47.3125 37.94 47.0833 38.0442 46.875 38.2525L42.4375 42.69C42.3125 41.44 42.4583 40.2213 42.875 39.0338C43.2917 37.8463 43.9583 36.7942 44.875 35.8775C45.0417 35.7108 45.2083 35.5546 45.375 35.4088C45.5417 35.2629 45.7292 35.1067 45.9375 34.94C46.9375 34.2317 47.8958 33.9921 48.8125 34.2213C49.7292 34.4504 50.4792 34.8567 51.0625 35.44C51.6042 35.9817 51.9896 36.7213 52.2188 37.6588C52.4479 38.5963 52.2083 39.565 51.5 40.565C51.5 40.565 51.4896 40.5858 51.4688 40.6275C51.4479 40.6692 51.4167 40.7108 51.375 40.7525ZM10.4375 14.815C10.3542 14.815 10.2812 14.7838 10.2188 14.7213C10.1562 14.6588 10.125 14.5858 10.125 14.5025V11.94C10.125 11.8567 10.1562 11.7838 10.2188 11.7213C10.2812 11.6588 10.3542 11.6275 10.4375 11.6275H22.375C22.4583 11.6275 22.5312 11.6588 22.5938 11.7213C22.6562 11.7838 22.6875 11.8567 22.6875 11.94V14.5025C22.6875 14.5858 22.6562 14.6588 22.5938 14.7213C22.5312 14.7838 22.4583 14.815 22.375 14.815H10.4375ZM7.1875 37.0025H22.6875C22.6042 37.2942 22.5521 37.5963 22.5312 37.9088C22.5104 38.2213 22.5208 38.5442 22.5625 38.8775H6.3125C6.39583 38.5442 6.52083 38.2213 6.6875 37.9088C6.85417 37.5963 7.02083 37.2942 7.1875 37.0025ZM16.4375 53.565C13.4375 53.565 10.875 52.5025 8.75 50.3775C6.625 48.2525 5.5625 45.69 5.5625 42.69C5.5625 42.3567 5.58333 42.0233 5.625 41.69C5.66667 41.3567 5.70833 41.0442 5.75 40.7525H23.125C23.2083 40.8775 23.2917 41.0129 23.375 41.1588C23.4583 41.3046 23.5417 41.4608 23.625 41.6275C23.7917 41.8775 23.9688 42.1067 24.1562 42.315C24.3438 42.5233 24.5417 42.7317 24.75 42.94C25.125 43.2733 25.5104 43.5963 25.9062 43.9088C26.3021 44.2213 26.7083 44.4817 27.125 44.69C26.6667 47.2317 25.4375 49.3463 23.4375 51.0338C21.4375 52.7213 19.1042 53.565 16.4375 53.565ZM26.0625 41.6275C25.8958 41.4608 25.7396 41.2838 25.5938 41.0963C25.4479 40.9088 25.3125 40.7317 25.1875 40.565C24.4792 39.565 24.2396 38.5963 24.4688 37.6588C24.6979 36.7213 25.0833 35.9817 25.625 35.44C25.9583 35.1067 26.375 34.815 26.875 34.565C27.375 34.315 27.9167 34.19 28.5 34.19C28.875 34.19 29.25 34.2525 29.625 34.3775C30 34.5025 30.375 34.69 30.75 34.94C30.9583 35.1067 31.1458 35.2629 31.3125 35.4088C31.4792 35.5546 31.6458 35.7108 31.8125 35.8775C32.7292 36.7942 33.3958 37.8463 33.8125 39.0338C34.2292 40.2213 34.375 41.44 34.25 42.69L29.8125 38.2525C29.6042 38.0442 29.375 37.94 29.125 37.94C28.875 37.94 28.6458 38.0442 28.4375 38.2525C28.2708 38.4192 28.1875 38.6379 28.1875 38.9088C28.1875 39.1796 28.2708 39.3983 28.4375 39.565L32.9375 44.065C31.6875 44.19 30.4583 44.0442 29.25 43.6275C28.0417 43.2108 26.9792 42.5442 26.0625 41.6275ZM37.375 55.69H26.5C26.75 55.4817 27 55.2733 27.25 55.065C27.5 54.8567 27.7292 54.6483 27.9375 54.44C29.1458 53.2733 30.1354 51.9608 30.9062 50.5025C31.6771 49.0442 32.2292 47.5233 32.5625 45.94C32.8958 45.94 33.2292 45.9088 33.5625 45.8463C33.8958 45.7838 34.2292 45.7108 34.5625 45.6275L37.375 48.5025V55.69ZM14.1875 45.44C14.1875 45.69 14.0938 45.9088 13.9062 46.0963C13.7188 46.2838 13.5 46.3775 13.25 46.3775C13 46.3775 12.7812 46.2838 12.5938 46.0963C12.4062 45.9088 12.3125 45.69 12.3125 45.44C12.3125 45.19 12.4062 44.9713 12.5938 44.7838C12.7812 44.5963 13 44.5025 13.25 44.5025C13.5 44.5025 13.7188 44.5963 13.9062 44.7838C14.0938 44.9713 14.1875 45.19 14.1875 45.44ZM18.5625 49.565C18.5625 49.815 18.4688 50.0338 18.2812 50.2213C18.0938 50.4088 17.875 50.5025 17.625 50.5025C17.375 50.5025 17.1562 50.4088 16.9688 50.2213C16.7812 50.0338 16.6875 49.815 16.6875 49.565C16.6875 49.315 16.7812 49.0963 16.9688 48.9088C17.1562 48.7213 17.375 48.6275 17.625 48.6275C17.875 48.6275 18.0938 48.7213 18.2812 48.9088C18.4688 49.0963 18.5625 49.315 18.5625 49.565ZM20.3125 43.565C20.3125 43.815 20.2188 44.0338 20.0312 44.2213C19.8438 44.4088 19.625 44.5025 19.375 44.5025C19.125 44.5025 18.9062 44.4088 18.7188 44.2213C18.5312 44.0338 18.4375 43.815 18.4375 43.565C18.4375 43.315 18.5312 43.0963 18.7188 42.9088C18.9062 42.7213 19.125 42.6275 19.375 42.6275C19.625 42.6275 19.8438 42.7213 20.0312 42.9088C20.2188 43.0963 20.3125 43.315 20.3125 43.565Z" fill="#EEC044"/>
</svg>
