<svg width="60" height="61" viewBox="0 0 60 61" fill="none" xmlns="http://www.w3.org/2000/svg">
<path d="M16 58.69H14.1875C12.9375 58.69 11.8438 58.2838 10.9062 57.4713C9.96875 56.6588 9.41667 55.6483 9.25 54.44V54.3775L6.5625 35.565C6.52083 35.315 6.40625 35.1067 6.21875 34.94C6.03125 34.7733 5.8125 34.69 5.5625 34.69C5.3125 34.69 5.08333 34.7838 4.875 34.9713C4.66667 35.1588 4.5625 35.3983 4.5625 35.69C4.5625 35.7317 4.5625 35.7629 4.5625 35.7838C4.5625 35.8046 4.5625 35.815 4.5625 35.815L7.25 54.69C7.54167 56.3983 8.33333 57.8254 9.625 58.9713C10.9167 60.1171 12.4375 60.69 14.1875 60.69H16C16.2917 60.69 16.5312 60.5963 16.7188 60.4088C16.9062 60.2213 17 59.9817 17 59.69C17 59.3983 16.9062 59.1588 16.7188 58.9713C16.5312 58.7838 16.2917 58.69 16 58.69ZM28 48.69C27.7083 48.69 27.4688 48.7838 27.2812 48.9713C27.0938 49.1588 27 49.3983 27 49.69V53.69C27 54.5233 27.2917 55.2317 27.875 55.815C28.4583 56.3983 29.1667 56.69 30 56.69C30.8333 56.69 31.5417 56.3983 32.125 55.815C32.7083 55.2317 33 54.5233 33 53.69V41.69C33 40.8567 32.7083 40.1483 32.125 39.565C31.5417 38.9817 30.8333 38.69 30 38.69C29.1667 38.69 28.4583 38.9817 27.875 39.565C27.2917 40.1483 27 40.8567 27 41.69V45.69C27 45.9817 27.0938 46.2213 27.2812 46.4088C27.4688 46.5963 27.7083 46.69 28 46.69C28.2917 46.69 28.5312 46.5963 28.7188 46.4088C28.9062 46.2213 29 45.9817 29 45.69V41.69C29 41.3983 29.0938 41.1588 29.2812 40.9713C29.4688 40.7838 29.7083 40.69 30 40.69C30.2917 40.69 30.5312 40.7838 30.7188 40.9713C30.9062 41.1588 31 41.3983 31 41.69V53.69C31 53.9817 30.9062 54.2213 30.7188 54.4088C30.5312 54.5963 30.2917 54.69 30 54.69C29.7083 54.69 29.4688 54.5963 29.2812 54.4088C29.0938 54.2213 29 53.9817 29 53.69V49.69C29 49.3983 28.9062 49.1588 28.7188 48.9713C28.5312 48.7838 28.2917 48.69 28 48.69ZM14 38.69C13.1667 38.69 12.4583 38.9817 11.875 39.565C11.2917 40.1483 11 40.8567 11 41.69V53.69C11 54.5233 11.2917 55.2317 11.875 55.815C12.4583 56.3983 13.1667 56.69 14 56.69C14.8333 56.69 15.5417 56.3983 16.125 55.815C16.7083 55.2317 17 54.5233 17 53.69V41.69C17 40.8567 16.7083 40.1483 16.125 39.565C15.5417 38.9817 14.8333 38.69 14 38.69ZM15 53.69C15 53.9817 14.9062 54.2213 14.7188 54.4088C14.5312 54.5963 14.2917 54.69 14 54.69C13.7083 54.69 13.4688 54.5963 13.2812 54.4088C13.0938 54.2213 13 53.9817 13 53.69V41.69C13 41.3983 13.0938 41.1588 13.2812 40.9713C13.4688 40.7838 13.7083 40.69 14 40.69C14.2917 40.69 14.5312 40.7838 14.7188 40.9713C14.9062 41.1588 15 41.3983 15 41.69V53.69ZM19 41.69V53.69C19 54.5233 19.2917 55.2317 19.875 55.815C20.4583 56.3983 21.1667 56.69 22 56.69C22.8333 56.69 23.5417 56.3983 24.125 55.815C24.7083 55.2317 25 54.5233 25 53.69V41.69C25 40.8567 24.7083 40.1483 24.125 39.565C23.5417 38.9817 22.8333 38.69 22 38.69C21.1667 38.69 20.4583 38.9817 19.875 39.565C19.2917 40.1483 19 40.8567 19 41.69ZM23 41.69V53.69C23 53.9817 22.9062 54.2213 22.7188 54.4088C22.5312 54.5963 22.2917 54.69 22 54.69C21.7083 54.69 21.4688 54.5963 21.2812 54.4088C21.0938 54.2213 21 53.9817 21 53.69V41.69C21 41.3983 21.0938 41.1588 21.2812 40.9713C21.4688 40.7838 21.7083 40.69 22 40.69C22.2917 40.69 22.5312 40.7838 22.7188 40.9713C22.9062 41.1588 23 41.3983 23 41.69ZM44 36.69C44.2917 36.69 44.5312 36.5963 44.7188 36.4088C44.9062 36.2213 45 35.9817 45 35.69C45 35.3983 44.9062 35.1588 44.7188 34.9713C44.5312 34.7838 44.2917 34.69 44 34.69H37C36.7083 34.69 36.4688 34.7838 36.2812 34.9713C36.0938 35.1588 36 35.3983 36 35.69C36 35.9817 36.0938 36.2213 36.2812 36.4088C36.4688 36.5963 36.7083 36.69 37 36.69H44ZM23 34.69H11C10.7083 34.69 10.4688 34.7838 10.2812 34.9713C10.0938 35.1588 10 35.3983 10 35.69C10 35.9817 10.0938 36.2213 10.2812 36.4088C10.4688 36.5963 10.7083 36.69 11 36.69H23C23.2917 36.69 23.5312 36.5963 23.7188 36.4088C23.9062 36.2213 24 35.9817 24 35.69C24 35.3983 23.9062 35.1588 23.7188 34.9713C23.5312 34.7838 23.2917 34.69 23 34.69ZM55.9375 41.7525C56.5625 41.2942 57.0625 40.7108 57.4375 40.0025C57.8125 39.2942 58 38.5233 58 37.69C58 37.3983 57.9062 37.1588 57.7188 36.9713C57.5312 36.7838 57.2917 36.69 57 36.69H55.3125L55.875 32.69H57C57.8333 32.69 58.5417 32.3983 59.125 31.815C59.7083 31.2317 60 30.5233 60 29.69C60 28.8567 59.7083 28.1483 59.125 27.565C58.5417 26.9817 57.8333 26.69 57 26.69H50.75L51.625 24.7525C51.9583 25.0025 52.3229 25.2004 52.7188 25.3463C53.1146 25.4921 53.5417 25.565 54 25.565C54.9167 25.565 55.7292 25.2942 56.4375 24.7525C57.1458 24.2108 57.625 23.5025 57.875 22.6275C57.9167 22.4608 57.9479 22.2942 57.9688 22.1275C57.9896 21.9608 58 21.7942 58 21.6275C58 21.5858 58 21.5546 58 21.5338C58 21.5129 58 21.4817 58 21.44C58.5833 21.1067 59.0625 20.6275 59.4375 20.0025C59.8125 19.3775 60 18.7108 60 18.0025C60 17.4192 59.8854 16.8671 59.6562 16.3463C59.4271 15.8254 59.1042 15.3775 58.6875 15.0025C58.7708 14.8358 58.8646 14.6379 58.9688 14.4088C59.0729 14.1796 59.1458 13.94 59.1875 13.69H59.25C59.2917 13.44 59.3333 13.1796 59.375 12.9088C59.4167 12.6379 59.4375 12.3775 59.4375 12.1275C59.4375 11.2942 59.2812 10.5129 58.9688 9.78375C58.6562 9.05458 58.2292 8.41917 57.6875 7.8775C57.6042 7.79417 57.5 7.73167 57.375 7.69C57.25 7.64833 57.125 7.6275 57 7.6275C56.7083 7.6275 56.4688 7.72125 56.2812 7.90875C56.0938 8.09625 56 8.33583 56 8.6275C56 8.7525 56.0208 8.8775 56.0625 9.0025C56.1042 9.1275 56.1875 9.23167 56.3125 9.315C56.6458 9.69 56.9167 10.1171 57.125 10.5963C57.3333 11.0754 57.4375 11.5858 57.4375 12.1275C57.4375 12.9608 57.1979 13.7213 56.7188 14.4088C56.2396 15.0963 55.6042 15.565 54.8125 15.815V15.8775C54.6458 15.9192 54.5 16.0233 54.375 16.19C54.25 16.3567 54.1875 16.5442 54.1875 16.7525C54.1875 16.8775 54.1771 17.0025 54.1562 17.1275C54.1354 17.2525 54.1042 17.3775 54.0625 17.5025V17.44C53.8958 18.1067 53.5417 18.6483 53 19.065C52.4583 19.4817 51.8542 19.69 51.1875 19.69C50.4792 19.69 49.8646 19.4817 49.3438 19.065C48.8229 18.6483 48.4792 18.1275 48.3125 17.5025C48.3125 17.5025 48.3125 17.4817 48.3125 17.44C48.2708 17.3567 48.2396 17.2421 48.2188 17.0963C48.1979 16.9504 48.1875 16.815 48.1875 16.69C48.1875 16.1483 48.3229 15.6483 48.5938 15.19C48.8646 14.7317 49.2083 14.3567 49.625 14.065H49.6875C49.8125 13.9817 49.9271 13.8671 50.0312 13.7213C50.1354 13.5754 50.1875 13.3983 50.1875 13.19C50.1875 12.94 50.0833 12.7108 49.875 12.5025C49.6667 12.2942 49.4375 12.19 49.1875 12.19C49.0625 12.19 48.9583 12.2108 48.875 12.2525C48.7917 12.2942 48.7292 12.3358 48.6875 12.3775C47.9375 12.7942 47.3333 13.3879 46.875 14.1588C46.4167 14.9296 46.1875 15.7733 46.1875 16.69C46.1875 16.7317 46.1875 16.7942 46.1875 16.8775C46.1875 16.9608 46.1875 17.0442 46.1875 17.1275V17.065C46.1042 17.1067 46.0104 17.1275 45.9062 17.1275C45.8021 17.1275 45.6875 17.1275 45.5625 17.1275C45.4375 17.1275 45.3125 17.1275 45.1875 17.1275C45.0625 17.1275 44.9375 17.1067 44.8125 17.065H44.875C44.4167 16.94 44.0312 16.7421 43.7188 16.4713C43.4062 16.2004 43.1458 15.8775 42.9375 15.5025C42.9375 15.4608 42.9375 15.44 42.9375 15.44C42.8542 15.2317 42.7812 15.0233 42.7188 14.815C42.6562 14.6067 42.625 14.3775 42.625 14.1275C42.625 14.1275 42.625 14.1067 42.625 14.065C42.625 13.815 42.5312 13.5858 42.3438 13.3775C42.1562 13.1692 41.9167 13.065 41.625 13.065C41.375 13.065 41.1458 13.1588 40.9375 13.3463C40.7292 13.5338 40.625 13.7733 40.625 14.065C40.625 14.065 40.625 14.0754 40.625 14.0963C40.625 14.1171 40.625 14.1275 40.625 14.1275C40.625 14.3775 40.6458 14.6067 40.6875 14.815C40.7292 15.0233 40.7708 15.2317 40.8125 15.44C40.6458 15.4817 40.4792 15.5233 40.3125 15.565C40.1458 15.6067 39.9792 15.6275 39.8125 15.6275C39.6875 15.6275 39.5625 15.6171 39.4375 15.5963C39.3125 15.5754 39.1875 15.5442 39.0625 15.5025C38.7292 15.4192 38.4375 15.2942 38.1875 15.1275C37.9375 14.9608 37.7083 14.7525 37.5 14.5025V14.44C37.2917 14.19 37.125 13.9088 37 13.5963C36.875 13.2838 36.8125 12.9608 36.8125 12.6275C36.8125 11.9192 37.0312 11.2942 37.4688 10.7525C37.9062 10.2108 38.4375 9.85667 39.0625 9.69H39.125C39.2917 9.64833 39.4479 9.55458 39.5938 9.40875C39.7396 9.26292 39.8125 9.08583 39.8125 8.8775L39.875 8.69C39.875 8.64833 39.875 8.60667 39.875 8.565C39.875 8.52333 39.875 8.5025 39.875 8.5025C40.0833 7.79417 40.4375 7.19 40.9375 6.69C41.4375 6.19 42.0417 5.85667 42.75 5.69C42.75 5.815 42.7396 5.97125 42.7188 6.15875C42.6979 6.34625 42.6875 6.52333 42.6875 6.69C42.6875 7.23167 42.7604 7.76292 42.9062 8.28375C43.0521 8.80458 43.25 9.27333 43.5 9.69C43.5833 9.85667 43.6979 9.98167 43.8438 10.065C43.9896 10.1483 44.1458 10.19 44.3125 10.19C44.6042 10.19 44.8438 10.0963 45.0312 9.90875C45.2188 9.72125 45.3125 9.48167 45.3125 9.19C45.3125 9.10667 45.3021 9.02333 45.2812 8.94C45.2604 8.85667 45.2292 8.77333 45.1875 8.69C45.0208 8.39833 44.8958 8.08583 44.8125 7.7525C44.7292 7.41917 44.6875 7.065 44.6875 6.69C44.6875 6.39833 44.7188 6.10667 44.7812 5.815C44.8438 5.52333 44.9375 5.23167 45.0625 4.94C45.3958 4.27333 45.8854 3.73167 46.5312 3.315C47.1771 2.89833 47.8958 2.69 48.6875 2.69C49.7708 2.69 50.7083 3.07542 51.5 3.84625C52.2917 4.61708 52.6875 5.565 52.6875 6.69C52.6875 6.73167 52.6771 6.78375 52.6562 6.84625C52.6354 6.90875 52.625 6.98167 52.625 7.065V7.0025C52.625 7.04417 52.625 7.065 52.625 7.065C52.625 7.35667 52.7292 7.59625 52.9375 7.78375C53.1458 7.97125 53.375 8.065 53.625 8.065C53.875 8.065 54.0938 7.98167 54.2812 7.815C54.4688 7.64833 54.5833 7.44 54.625 7.19C54.625 7.10667 54.6354 7.02333 54.6562 6.94C54.6771 6.85667 54.6875 6.77333 54.6875 6.69C54.6875 5.02333 54.0938 3.60667 52.9062 2.44C51.7188 1.27333 50.3125 0.690002 48.6875 0.690002C47.6042 0.690002 46.6146 0.95042 45.7188 1.47125C44.8229 1.99208 44.1042 2.66917 43.5625 3.5025C42.2292 3.54417 41.0521 3.98167 40.0312 4.815C39.0104 5.64833 38.3333 6.69 38 7.94V8.0025C37.0417 8.3775 36.2812 8.97125 35.7188 9.78375C35.1562 10.5963 34.875 11.5233 34.875 12.565C34.875 13.0233 34.9271 13.4504 35.0312 13.8463C35.1354 14.2421 35.2708 14.6275 35.4375 15.0025V14.94C35.3542 15.065 35.2604 15.2004 35.1562 15.3463C35.0521 15.4921 34.9792 15.6275 34.9375 15.7525L34.875 15.815L34.0625 14.0025C33.7292 13.2942 33.2708 12.6796 32.6875 12.1588C32.1042 11.6379 31.4375 11.2733 30.6875 11.065L30.625 11.0025C30.5417 10.9608 30.4271 10.9296 30.2812 10.9088C30.1354 10.8879 30 10.8775 29.875 10.8775L29.8125 10.815L29.5 5.5025C29.5 5.2525 29.3958 5.03375 29.1875 4.84625C28.9792 4.65875 28.75 4.565 28.5 4.565C28.2083 4.565 27.9688 4.65875 27.7812 4.84625C27.5938 5.03375 27.5 5.27333 27.5 5.565C27.5 5.565 27.5 5.57542 27.5 5.59625C27.5 5.61708 27.5 5.6275 27.5 5.6275L27.8125 10.8775C27.6458 10.9192 27.4792 10.9713 27.3125 11.0338C27.1458 11.0963 26.9792 11.1483 26.8125 11.19H26.875L25.5 6.44C25.4583 6.23167 25.3438 6.05458 25.1562 5.90875C24.9688 5.76292 24.7708 5.69 24.5625 5.69C24.2708 5.69 24.0312 5.78375 23.8438 5.97125C23.6562 6.15875 23.5625 6.39833 23.5625 6.69C23.5625 6.73167 23.5625 6.77333 23.5625 6.815C23.5625 6.85667 23.5625 6.91917 23.5625 7.0025V6.94L23.625 7.065L23.5 7.0025C23.4167 6.91917 23.3125 6.84625 23.1875 6.78375C23.0625 6.72125 22.9375 6.69 22.8125 6.69C22.6875 6.69 22.5625 6.71083 22.4375 6.7525C22.3125 6.79417 22.2083 6.8775 22.125 7.0025V6.94L19.125 9.815C19.0417 9.94 18.9688 10.0546 18.9062 10.1588C18.8438 10.2629 18.8125 10.3983 18.8125 10.565C18.8125 10.7317 18.8542 10.8879 18.9375 11.0338C19.0208 11.1796 19.1458 11.2942 19.3125 11.3775L23.75 14.315C23.7083 14.44 23.6667 14.565 23.625 14.69C23.5833 14.815 23.5417 14.9608 23.5 15.1275C23.4583 15.3358 23.4271 15.5442 23.4062 15.7525C23.3854 15.9608 23.375 16.1692 23.375 16.3775C23.375 16.4608 23.375 16.5442 23.375 16.6275C23.375 16.7108 23.375 16.7942 23.375 16.8775C22.625 17.0025 21.9167 17.2213 21.25 17.5338C20.5833 17.8463 19.9583 18.2317 19.375 18.69L18.6875 18.0025C18.6042 17.9192 18.5 17.8463 18.375 17.7838C18.25 17.7213 18.125 17.69 18 17.69C17.75 17.69 17.5208 17.7942 17.3125 18.0025C17.1042 18.2108 17 18.44 17 18.69C17 18.815 17.0312 18.94 17.0938 19.065C17.1562 19.19 17.2292 19.2942 17.3125 19.3775L17.375 19.44C16.5417 19.6483 15.8229 20.0233 15.2188 20.565C14.6146 21.1067 14.1667 21.7733 13.875 22.565H13.8125L13.75 22.8775L11.3125 22.065C11.2708 22.0233 11.2292 22.0025 11.1875 22.0025C11.1458 22.0025 11.0833 22.0025 11 22.0025C10.7083 22.0025 10.4688 22.0963 10.2812 22.2838C10.0938 22.4713 10 22.7108 10 23.0025C10 23.2108 10.0625 23.3983 10.1875 23.565C10.3125 23.7317 10.4792 23.8567 10.6875 23.94L30.8125 30.8775C30.9792 30.9608 31.125 31.0858 31.25 31.2525C31.375 31.4192 31.4375 31.6275 31.4375 31.8775C31.4375 32.1275 31.3438 32.3567 31.1562 32.565C30.9688 32.7733 30.7292 32.8775 30.4375 32.8775C30.3958 32.8775 30.3438 32.8671 30.2812 32.8463C30.2188 32.8254 30.1667 32.815 30.125 32.815L3.6875 23.6275C3.47917 23.5442 3.3125 23.4192 3.1875 23.2525C3.0625 23.0858 3 22.8983 3 22.69C3 22.4817 3.05208 22.3046 3.15625 22.1588C3.26042 22.0129 3.39583 21.8983 3.5625 21.815C3.64583 21.7733 3.71875 21.7421 3.78125 21.7213C3.84375 21.7004 3.91667 21.69 4 21.69C4.04167 21.69 4.09375 21.69 4.15625 21.69C4.21875 21.69 4.27083 21.7108 4.3125 21.7525L6.875 22.6275C6.95833 22.6692 7.03125 22.69 7.09375 22.69C7.15625 22.69 7.20833 22.69 7.25 22.69C7.54167 22.69 7.78125 22.5963 7.96875 22.4088C8.15625 22.2213 8.25 21.9817 8.25 21.69C8.25 21.4817 8.1875 21.2942 8.0625 21.1275C7.9375 20.9608 7.77083 20.8358 7.5625 20.7525L5 19.8775C4.83333 19.7942 4.66667 19.7421 4.5 19.7213C4.33333 19.7004 4.14583 19.69 3.9375 19.69C3.14583 19.69 2.44792 19.9817 1.84375 20.565C1.23958 21.1483 0.9375 21.8567 0.9375 22.69C0.9375 23.3567 1.13542 23.94 1.53125 24.44C1.92708 24.94 2.41667 25.2942 3 25.5025L6.375 26.69H3C2.16667 26.69 1.45833 26.9817 0.875 27.565C0.291667 28.1483 0 28.8567 0 29.69C0 30.5233 0.291667 31.2317 0.875 31.815C1.45833 32.3983 2.16667 32.69 3 32.69H23.6875L29.5 34.69C29.625 34.7317 29.7708 34.7733 29.9375 34.815C30.1042 34.8567 30.2917 34.8775 30.5 34.8775C31.3333 34.8775 32.0417 34.5858 32.625 34.0025C33.2083 33.4192 33.5 32.7108 33.5 31.8775C33.5 31.2108 33.3021 30.6171 32.9062 30.0963C32.5104 29.5754 32.0208 29.2108 31.4375 29.0025L30.5 28.69H57C57.2917 28.69 57.5312 28.7838 57.7188 28.9713C57.9062 29.1588 58 29.3983 58 29.69C58 29.9817 57.9062 30.2213 57.7188 30.4088C57.5312 30.5963 57.2917 30.69 57 30.69H36.4375C36.1875 30.69 35.9583 30.7838 35.75 30.9713C35.5417 31.1588 35.4375 31.3983 35.4375 31.69C35.4375 31.9817 35.5417 32.2213 35.75 32.4088C35.9583 32.5963 36.1875 32.69 36.4375 32.69H53.875L53.25 37.0025C52.9583 37.1275 52.6875 37.2733 52.4375 37.44C52.1875 37.6067 51.9583 37.7733 51.75 37.94V37.815C51.75 37.7317 51.75 37.6692 51.75 37.6275C51.75 37.5858 51.75 37.5233 51.75 37.44C51.75 37.1067 51.6875 36.7838 51.5625 36.4713C51.4375 36.1588 51.2708 35.8775 51.0625 35.6275C50.8125 35.3358 50.5104 35.1171 50.1562 34.9713C49.8021 34.8254 49.4167 34.7525 49 34.7525C48.5833 34.7525 48.1979 34.8254 47.8438 34.9713C47.4896 35.1171 47.1875 35.3358 46.9375 35.6275C46.7292 35.8775 46.5625 36.1588 46.4375 36.4713C46.3125 36.7838 46.25 37.1067 46.25 37.44C46.25 37.5233 46.25 37.5963 46.25 37.6588C46.25 37.7213 46.25 37.7733 46.25 37.815L46.625 40.7525C46.5 40.7108 46.3854 40.69 46.2812 40.69C46.1771 40.69 46.0833 40.69 46 40.69C45.0417 40.69 44.1354 40.8463 43.2812 41.1588C42.4271 41.4713 41.6667 41.8983 41 42.44V41.69C41 40.8567 40.7083 40.1483 40.125 39.565C39.5417 38.9817 38.8333 38.69 38 38.69C37.1667 38.69 36.4583 38.9817 35.875 39.565C35.2917 40.1483 35 40.8567 35 41.69V53.69C35 54.5233 35.2917 55.2317 35.875 55.815C36.4583 56.3983 37.1667 56.69 38 56.69C38.375 56.69 38.7396 56.6171 39.0938 56.4713C39.4479 56.3254 39.7708 56.1275 40.0625 55.8775C40.3125 56.4192 40.6042 56.9192 40.9375 57.3775C41.2708 57.8358 41.625 58.2733 42 58.69H20C19.7083 58.69 19.4688 58.7838 19.2812 58.9713C19.0938 59.1588 19 59.3983 19 59.69C19 59.9817 19.0938 60.2213 19.2812 60.4088C19.4688 60.5963 19.7083 60.69 20 60.69H45.8125C45.8125 60.69 45.8333 60.69 45.875 60.69C45.9167 60.69 45.9479 60.69 45.9688 60.69C45.9896 60.69 46 60.69 46 60.69C46.5417 60.69 47.0729 60.6379 47.5938 60.5338C48.1146 60.4296 48.6042 60.2733 49.0625 60.065L49 60.1275C49.4583 60.2942 49.9375 60.4296 50.4375 60.5338C50.9375 60.6379 51.4583 60.69 52 60.69C52.9167 60.69 53.8021 60.3983 54.6562 59.815C55.5104 59.2317 56.3125 58.3983 57.0625 57.315C57.1458 57.2317 57.1979 57.1379 57.2188 57.0338C57.2396 56.9296 57.25 56.8358 57.25 56.7525C57.25 56.4608 57.1562 56.2213 56.9688 56.0338C56.7812 55.8463 56.5417 55.7525 56.25 55.7525C56.0833 55.7525 55.9271 55.7838 55.7812 55.8463C55.6354 55.9088 55.5208 56.0233 55.4375 56.19C54.8958 56.9817 54.3229 57.5963 53.7188 58.0338C53.1146 58.4713 52.5417 58.69 52 58.69C51.5417 58.69 51.0938 58.6379 50.6562 58.5338C50.2188 58.4296 49.7917 58.2733 49.375 58.065L49.4375 58.1275C49.3542 58.0858 49.2812 58.0546 49.2188 58.0338C49.1562 58.0129 49.0833 58.0025 49 58.0025C48.9167 58.0025 48.8438 58.0129 48.7812 58.0338C48.7188 58.0546 48.6458 58.0858 48.5625 58.1275C48.1875 58.2942 47.7812 58.4296 47.3438 58.5338C46.9062 58.6379 46.4583 58.69 46 58.69C46 58.69 45.9896 58.69 45.9688 58.69C45.9479 58.69 45.9375 58.69 45.9375 58.69C44.4375 58.6483 43.0729 57.4296 41.8438 55.0338C40.6146 52.6379 40 50.5233 40 48.69C40 47.0233 40.5833 45.6067 41.75 44.44C42.9167 43.2733 44.3333 42.69 46 42.69C46.1667 42.69 46.3229 42.7004 46.4688 42.7213C46.6146 42.7421 46.7708 42.7525 46.9375 42.7525H46.875V42.815C46.9583 43.3567 47.1979 43.8046 47.5938 44.1588C47.9896 44.5129 48.4583 44.69 49 44.69C49.5417 44.69 50.0104 44.5129 50.4062 44.1588C50.8021 43.8046 51.0417 43.3567 51.125 42.815V42.7525C51.25 42.7525 51.3854 42.7421 51.5312 42.7213C51.6771 42.7004 51.8333 42.69 52 42.69C53.6667 42.69 55.0833 43.2733 56.25 44.44C57.4167 45.6067 58 47.0233 58 48.69C57.9583 49.44 57.8646 50.1692 57.7188 50.8775C57.5729 51.5858 57.375 52.2525 57.125 52.8775V52.815C57.125 52.8567 57.1146 52.9088 57.0938 52.9713C57.0729 53.0338 57.0625 53.1067 57.0625 53.19C57.0625 53.4817 57.1562 53.7213 57.3438 53.9088C57.5312 54.0963 57.7708 54.19 58.0625 54.19C58.2708 54.19 58.4688 54.1275 58.6562 54.0025C58.8438 53.8775 58.9583 53.7108 59 53.5025C59.2917 52.7942 59.5208 52.0338 59.6875 51.2213C59.8542 50.4088 59.9583 49.565 60 48.69C60 47.19 59.625 45.8254 58.875 44.5963C58.125 43.3671 57.1458 42.4192 55.9375 41.7525ZM3 30.69C2.70833 30.69 2.46875 30.5963 2.28125 30.4088C2.09375 30.2213 2 29.9817 2 29.69C2 29.3983 2.09375 29.1588 2.28125 28.9713C2.46875 28.7838 2.70833 28.69 3 28.69H12.1875L17.9375 30.69H3ZM56 18.0025C56 17.9192 56.0104 17.8358 56.0312 17.7525C56.0521 17.6692 56.0833 17.5858 56.125 17.5025V17.44C56.375 17.315 56.6042 17.1796 56.8125 17.0338C57.0208 16.8879 57.2292 16.7317 57.4375 16.565C57.6042 16.7317 57.7396 16.94 57.8438 17.19C57.9479 17.44 58 17.7108 58 18.0025C58 18.4192 57.8646 18.8046 57.5938 19.1588C57.3229 19.5129 57 19.7525 56.625 19.8775H56.5625C56.3542 19.9608 56.1875 20.0858 56.0625 20.2525C55.9375 20.4192 55.875 20.6067 55.875 20.815C55.875 20.8567 55.875 20.8983 55.875 20.94C55.875 20.9817 55.8958 21.0233 55.9375 21.065C55.9375 21.1483 55.9479 21.2317 55.9688 21.315C55.9896 21.3983 56 21.5025 56 21.6275C56 21.7108 55.9896 21.7942 55.9688 21.8775C55.9479 21.9608 55.9375 22.0442 55.9375 22.1275V22.065C55.8125 22.5233 55.5729 22.8879 55.2188 23.1588C54.8646 23.4296 54.4583 23.565 54 23.565C53.9167 23.565 53.8229 23.565 53.7188 23.565C53.6146 23.565 53.5208 23.5442 53.4375 23.5025H53.5C53.2917 23.4608 53.0938 23.3775 52.9062 23.2525C52.7188 23.1275 52.5625 22.9817 52.4375 22.815L53.125 21.2525C53.25 21.2108 53.3542 21.1692 53.4375 21.1275C53.5208 21.0858 53.6042 21.0442 53.6875 21.0025C54.2292 20.6692 54.7083 20.2421 55.125 19.7213C55.5417 19.2004 55.8333 18.6275 56 18.0025ZM50.8125 21.6275L48.5625 26.69H42.25L42.5 25.815C42.5 25.815 42.5104 25.7838 42.5312 25.7213C42.5521 25.6588 42.5625 25.6067 42.5625 25.565C42.5625 25.565 42.5521 25.5442 42.5312 25.5025C42.5104 25.4608 42.5 25.4192 42.5 25.3775L40.9375 17.5025C41.0625 17.4608 41.1979 17.4192 41.3438 17.3775C41.4896 17.3358 41.625 17.2733 41.75 17.19L41.6875 17.2525C41.9792 17.5858 42.2917 17.8775 42.625 18.1275C42.9583 18.3775 43.3125 18.5858 43.6875 18.7525H43.75L44.9375 24.815C44.9792 25.0233 45.0833 25.2004 45.25 25.3463C45.4167 25.4921 45.6042 25.565 45.8125 25.565C45.8542 25.565 45.875 25.565 45.875 25.565C45.875 25.565 45.8958 25.565 45.9375 25.565C46.1458 25.565 46.3333 25.5129 46.5 25.4088C46.6667 25.3046 46.7708 25.1692 46.8125 25.0025H46.875L48.75 21.0025C49.0417 21.2108 49.3542 21.3671 49.6875 21.4713C50.0208 21.5754 50.375 21.6275 50.75 21.6275H50.8125ZM46.75 19.0025C46.8333 19.1275 46.9062 19.2421 46.9688 19.3463C47.0312 19.4504 47.1042 19.5442 47.1875 19.6275L46.3125 21.44L45.875 19.1275C46.0417 19.1275 46.1979 19.1171 46.3438 19.0963C46.4896 19.0754 46.6458 19.0442 46.8125 19.0025H46.75ZM38.875 17.5025L39.25 19.315C39.125 19.3567 39 19.3879 38.875 19.4088C38.75 19.4296 38.625 19.44 38.5 19.44C38.4167 19.44 38.3333 19.4296 38.25 19.4088C38.1667 19.3879 38.0833 19.3775 38 19.3775C37.5833 19.2525 37.2396 19.0129 36.9688 18.6588C36.6979 18.3046 36.5625 17.8983 36.5625 17.44C36.5625 17.3567 36.5625 17.2629 36.5625 17.1588C36.5625 17.0546 36.5833 16.9608 36.625 16.8775V16.94C36.625 16.8567 36.6458 16.7838 36.6875 16.7213C36.7292 16.6588 36.75 16.6067 36.75 16.565C37 16.7733 37.2708 16.9504 37.5625 17.0963C37.8542 17.2421 38.1667 17.3567 38.5 17.44H38.5625C38.6042 17.44 38.6562 17.4504 38.7188 17.4713C38.7812 17.4921 38.8333 17.5025 38.875 17.5025ZM37.5 21.315C37.6667 21.3567 37.8333 21.3879 38 21.4088C38.1667 21.4296 38.3542 21.44 38.5625 21.44C38.7292 21.44 38.9167 21.4192 39.125 21.3775C39.3333 21.3358 39.5208 21.2942 39.6875 21.2525H39.625L40.5 25.565L40.1875 26.69H40L37.5 21.315ZM37.8125 26.69H35.8125C35.8542 26.69 35.8958 26.6796 35.9375 26.6588C35.9792 26.6379 36.0208 26.6275 36.0625 26.6275L37.4375 25.815L37.8125 26.69ZM30.9375 13.3775L29.875 14.0025C29.75 14.0858 29.6354 14.2004 29.5312 14.3463C29.4271 14.4921 29.375 14.6692 29.375 14.8775C29.375 15.1275 29.4792 15.3567 29.6875 15.565C29.8958 15.7733 30.125 15.8775 30.375 15.8775C30.5 15.8775 30.6042 15.8567 30.6875 15.815C30.7708 15.7733 30.8542 15.7317 30.9375 15.69H30.875L32.25 14.94L33.5625 17.6275L32.375 18.315C32.25 18.3983 32.1354 18.5129 32.0312 18.6588C31.9271 18.8046 31.875 18.9817 31.875 19.19C31.875 19.44 31.9792 19.6692 32.1875 19.8775C32.3958 20.0858 32.625 20.19 32.875 20.19C33 20.19 33.1042 20.1796 33.1875 20.1588C33.2708 20.1379 33.3542 20.1067 33.4375 20.065H33.375L34.4375 19.44L36.5625 24.0025L35.0625 24.8775C34.8958 24.9608 34.7708 25.0754 34.6875 25.2213C34.6042 25.3671 34.5625 25.5442 34.5625 25.7525C34.5625 25.9608 34.625 26.1483 34.75 26.315C34.875 26.4817 35.0417 26.6067 35.25 26.69H31.75L30.625 25.1275L33.1875 23.6275C33.3125 23.5442 33.4271 23.4296 33.5312 23.2838C33.6354 23.1379 33.6875 22.9608 33.6875 22.7525C33.6875 22.5025 33.5833 22.2733 33.375 22.065C33.1667 21.8567 32.9375 21.7525 32.6875 21.7525C32.6042 21.7525 32.5104 21.7629 32.4062 21.7838C32.3021 21.8046 32.2292 21.8567 32.1875 21.94V21.8775L29.5 23.44L27.8125 21.0025L29.8125 19.815C29.9375 19.7317 30.0521 19.6171 30.1562 19.4713C30.2604 19.3254 30.3125 19.1483 30.3125 18.94C30.3125 18.69 30.2083 18.4608 30 18.2525C29.7917 18.0442 29.5625 17.94 29.3125 17.94C29.2292 17.94 29.1458 17.9504 29.0625 17.9713C28.9792 17.9921 28.8958 18.0233 28.8125 18.065L26.625 19.315L26 18.44C25.7917 18.1483 25.6354 17.8254 25.5312 17.4713C25.4271 17.1171 25.375 16.7525 25.375 16.3775C25.375 15.3775 25.7292 14.5233 26.4375 13.815C27.1458 13.1067 27.9792 12.7525 28.9375 12.7525C29.1458 12.7525 29.3438 12.7733 29.5312 12.815C29.7188 12.8567 29.8958 12.8983 30.0625 12.94C30.2292 12.9817 30.3854 13.0442 30.5312 13.1275C30.6771 13.2108 30.8125 13.2942 30.9375 13.3775ZM21.4375 10.44L22.75 9.1275L24.75 11.19L25.125 12.315C25.0833 12.3567 25.0312 12.4088 24.9688 12.4713C24.9062 12.5338 24.8542 12.5858 24.8125 12.6275L21.4375 10.44ZM15.6875 23.2525C15.9375 22.7108 16.3125 22.2525 16.8125 21.8775C17.3125 21.5025 17.875 21.315 18.5 21.315C18.5417 21.315 18.5625 21.315 18.5625 21.315L18.3125 22.1275C18.1458 22.5025 17.9062 22.8463 17.5938 23.1588C17.2812 23.4713 16.9167 23.69 16.5 23.815L15.625 23.565L15.6875 23.2525ZM18.9375 24.69C19.1875 24.44 19.4167 24.1588 19.625 23.8463C19.8333 23.5338 20 23.19 20.125 22.815H20.1875L20.3125 22.3775C20.3958 22.4608 20.4896 22.5233 20.5938 22.565C20.6979 22.6067 20.8125 22.6275 20.9375 22.6275C21.2292 22.6275 21.4688 22.5338 21.6562 22.3463C21.8438 22.1588 21.9375 21.9192 21.9375 21.6275C21.9375 21.5025 21.9167 21.3879 21.875 21.2838C21.8333 21.1796 21.7708 21.0858 21.6875 21.0025L20.8125 20.1275C21.2708 19.7942 21.7604 19.5129 22.2812 19.2838C22.8021 19.0546 23.3333 18.8983 23.875 18.815H23.9375C24.0208 18.94 24.0938 19.065 24.1562 19.19C24.2188 19.315 24.2917 19.44 24.375 19.565L29.3125 26.69H24.75L18.9375 24.69ZM39 53.69C39 53.9817 38.9062 54.2213 38.7188 54.4088C38.5312 54.5963 38.2917 54.69 38 54.69C37.7083 54.69 37.4688 54.5963 37.2812 54.4088C37.0938 54.2213 37 53.9817 37 53.69V41.69C37 41.3983 37.0938 41.1588 37.2812 40.9713C37.4688 40.7838 37.7083 40.69 38 40.69C38.2917 40.69 38.5312 40.7838 38.7188 40.9713C38.9062 41.1588 39 41.3983 39 41.69V44.815C38.6667 45.3983 38.4167 46.0129 38.25 46.6588C38.0833 47.3046 38 47.9817 38 48.69C38.0417 49.6067 38.1562 50.4921 38.3438 51.3463C38.5312 52.2004 38.7708 53.0233 39.0625 53.815V53.69H39ZM55 38.69H55.8125C55.6042 39.2733 55.25 39.7525 54.75 40.1275C54.25 40.5025 53.6667 40.69 53 40.69H52.1875C52.3958 40.1067 52.75 39.6275 53.25 39.2525C53.75 38.8775 54.3333 38.69 55 38.69ZM48.875 42.565L48.25 37.565C48.25 37.5233 48.25 37.5025 48.25 37.5025C48.25 37.5025 48.25 37.4817 48.25 37.44C48.25 37.2317 48.3229 37.0546 48.4688 36.9088C48.6146 36.7629 48.7917 36.69 49 36.69C49.2083 36.69 49.3854 36.7629 49.5312 36.9088C49.6771 37.0546 49.75 37.2317 49.75 37.44C49.75 37.4817 49.75 37.5025 49.75 37.5025C49.75 37.5025 49.75 37.5233 49.75 37.565L49.125 42.565C49.125 42.6067 49.1146 42.6379 49.0938 42.6588C49.0729 42.6796 49.0417 42.69 49 42.69C48.9583 42.69 48.9271 42.6796 48.9062 42.6588C48.8854 42.6379 48.875 42.6067 48.875 42.565ZM53.375 44.8775C53.3333 44.8358 53.2708 44.8046 53.1875 44.7838C53.1042 44.7629 53.0208 44.7525 52.9375 44.7525C52.6458 44.7525 52.4062 44.8567 52.2188 45.065C52.0312 45.2733 51.9375 45.5025 51.9375 45.7525C51.9375 45.9608 51.9896 46.1379 52.0938 46.2838C52.1979 46.4296 52.3125 46.5442 52.4375 46.6275C52.7708 46.7942 53.0417 47.0025 53.25 47.2525C53.4583 47.5025 53.625 47.7942 53.75 48.1275C53.8333 48.3358 53.9583 48.5025 54.125 48.6275C54.2917 48.7525 54.4792 48.815 54.6875 48.815C54.9792 48.815 55.2188 48.7213 55.4062 48.5338C55.5938 48.3463 55.6875 48.1067 55.6875 47.815C55.6875 47.7317 55.6875 47.6588 55.6875 47.5963C55.6875 47.5338 55.6667 47.4817 55.625 47.44C55.4167 46.8983 55.125 46.4088 54.75 45.9713C54.375 45.5338 53.9375 45.1692 53.4375 44.8775H53.375Z" fill="#EEC044"/>
</svg>
